<?xml version="1.0" encoding="UTF-8"?>
<svg width="200" height="200" viewBox="0 0 200 200" xmlns="http://www.w3.org/2000/svg">
  <defs>
    <!-- Glassmorphism filters -->
    <filter id="glass" x="-50%" y="-50%" width="200%" height="200%">
      <feGaussianBlur in="SourceGraphic" stdDeviation="3"/>
      <feColorMatrix type="matrix" values="1 0 0 0 0 0 1 0 0 0 0 0 1 0 0 0 0 0 0.3 0"/>
    </filter>
    
    <!-- Gradients -->
    <linearGradient id="binanceGradient" x1="0%" y1="0%" x2="100%" y2="100%">
      <stop offset="0%" style="stop-color:#F3BA2F;stop-opacity:1" />
      <stop offset="100%" style="stop-color:#F7931A;stop-opacity:1" />
    </linearGradient>
    
    <linearGradient id="glassGradient" x1="0%" y1="0%" x2="100%" y2="100%">
      <stop offset="0%" style="stop-color:rgba(255,255,255,0.2);stop-opacity:1" />
      <stop offset="50%" style="stop-color:rgba(255,255,255,0.1);stop-opacity:1" />
      <stop offset="100%" style="stop-color:rgba(255,255,255,0.05);stop-opacity:1" />
    </linearGradient>
    
    <!-- Shadows -->
    <filter id="shadow" x="-50%" y="-50%" width="200%" height="200%">
      <feDropShadow dx="0" dy="4" stdDeviation="8" flood-color="#000000" flood-opacity="0.15"/>
    </filter>
  </defs>
  
  <!-- Background circle with glassmorphism -->
  <circle cx="100" cy="100" r="80" fill="url(#binanceGradient)" filter="url(#shadow)"/>
  
  <!-- Glass overlay -->
  <circle cx="100" cy="100" r="75" fill="url(#glassGradient)" filter="url(#glass)"/>
  
  <!-- Binance logo representation -->
  <g transform="translate(100, 100)">
    <!-- Abstract connection lines -->
    <path d="M-30 -20 Q-15 -10 0 0 Q15 10 30 20" 
          stroke="#F3BA2F" stroke-width="3" fill="none" opacity="0.8"/>
    <path d="M-30 20 Q-15 10 0 0 Q15 -10 30 -20" 
          stroke="#F3BA2F" stroke-width="3" fill="none" opacity="0.8"/>
    
    <!-- Central connection point -->
    <circle cx="0" cy="0" r="8" fill="#F3BA2F" opacity="0.9"/>
    
    <!-- Floating elements -->
    <circle cx="-25" cy="-25" r="4" fill="#F3BA2F" opacity="0.6"/>
    <circle cx="25" cy="25" r="4" fill="#F3BA2F" opacity="0.6"/>
    <circle cx="-25" cy="25" r="4" fill="#F3BA2F" opacity="0.6"/>
    <circle cx="25" cy="-25" r="4" fill="#F3BA2F" opacity="0.6"/>
  </g>
  
  <!-- Subtle glow effect -->
  <circle cx="100" cy="100" r="85" fill="none" stroke="#F3BA2F" stroke-width="1" opacity="0.3"/>
</svg>
