<?xml version="1.0" encoding="UTF-8"?>
<svg width="200" height="200" viewBox="0 0 200 200" xmlns="http://www.w3.org/2000/svg">
  <defs>
    <!-- Glassmorphism filters -->
    <filter id="glass" x="-50%" y="-50%" width="200%" height="200%">
      <feGaussianBlur in="SourceGraphic" stdDeviation="3"/>
      <feColorMatrix type="matrix" values="1 0 0 0 0 0 1 0 0 0 0 0 1 0 0 0 0 0 0.3 0"/>
    </filter>
    
    <!-- Gradients -->
    <linearGradient id="bitvavoGradient" x1="0%" y1="0%" x2="100%" y2="100%">
      <stop offset="0%" style="stop-color:#FF6B35;stop-opacity:1" />
      <stop offset="100%" style="stop-color:#F7931E;stop-opacity:1" />
    </linearGradient>
    
    <linearGradient id="glassGradient" x1="0%" y1="0%" x2="100%" y2="100%">
      <stop offset="0%" style="stop-color:rgba(255,255,255,0.2);stop-opacity:1" />
      <stop offset="50%" style="stop-color:rgba(255,255,255,0.1);stop-opacity:1" />
      <stop offset="100%" style="stop-color:rgba(255,255,255,0.05);stop-opacity:1" />
    </linearGradient>
    
    <!-- Shadows -->
    <filter id="shadow" x="-50%" y="-50%" width="200%" height="200%">
      <feDropShadow dx="0" dy="4" stdDeviation="8" flood-color="#000000" flood-opacity="0.15"/>
    </filter>
  </defs>
  
  <!-- Background circle with glassmorphism -->
  <circle cx="100" cy="100" r="80" fill="url(#bitvavoGradient)" filter="url(#shadow)"/>
  
  <!-- Glass overlay -->
  <circle cx="100" cy="100" r="75" fill="url(#glassGradient)" filter="url(#glass)"/>
  
  <!-- Bitvavo logo representation -->
  <g transform="translate(100, 100)">
    <!-- Abstract B shape -->
    <path d="M-25 -30 L-25 30 M-25 -30 Q0 -30 15 -15 Q0 0 15 15 Q0 30 -25 30" 
          stroke="#FF6B35" stroke-width="4" fill="none" opacity="0.8" stroke-linecap="round"/>
    
    <!-- Central connection point -->
    <circle cx="0" cy="0" r="8" fill="#FF6B35" opacity="0.9"/>
    <circle cx="0" cy="0" r="4" fill="white" opacity="0.8"/>
    
    <!-- Connection elements -->
    <circle cx="-30" cy="-30" r="5" fill="#F7931E" opacity="0.7"/>
    <circle cx="30" cy="30" r="5" fill="#F7931E" opacity="0.7"/>
    <circle cx="-30" cy="30" r="5" fill="#FF6B35" opacity="0.7"/>
    <circle cx="30" cy="-30" r="5" fill="#FF6B35" opacity="0.7"/>
    
    <!-- Subtle connection lines -->
    <path d="M-25 -25 Q-30 -30" stroke="#FF6B35" stroke-width="2" fill="none" opacity="0.4"/>
    <path d="M25 25 Q30 30" stroke="#F7931E" stroke-width="2" fill="none" opacity="0.4"/>
    
    <!-- Floating particles -->
    <circle cx="-15" cy="-20" r="2" fill="#FF6B35" opacity="0.6"/>
    <circle cx="15" cy="20" r="2" fill="#F7931E" opacity="0.6"/>
    <circle cx="-20" cy="15" r="2" fill="#F7931E" opacity="0.6"/>
    <circle cx="20" cy="-15" r="2" fill="#FF6B35" opacity="0.6"/>
  </g>
  
  <!-- Subtle glow effect -->
  <circle cx="100" cy="100" r="85" fill="none" stroke="#FF6B35" stroke-width="1" opacity="0.3"/>
</svg>
