<?xml version="1.0" encoding="UTF-8"?>
<svg width="200" height="200" viewBox="0 0 200 200" xmlns="http://www.w3.org/2000/svg">
  <defs>
    <!-- Glassmorphism filters -->
    <filter id="glass" x="-50%" y="-50%" width="200%" height="200%">
      <feGaussianBlur in="SourceGraphic" stdDeviation="3"/>
      <feColorMatrix type="matrix" values="1 0 0 0 0 0 1 0 0 0 0 0 1 0 0 0 0 0 0.3 0"/>
    </filter>
    
    <!-- Gradients -->
    <linearGradient id="krakenGradient" x1="0%" y1="0%" x2="100%" y2="100%">
      <stop offset="0%" style="stop-color:#1E3A8A;stop-opacity:1" />
      <stop offset="100%" style="stop-color:#7C3AED;stop-opacity:1" />
    </linearGradient>
    
    <linearGradient id="glassGradient" x1="0%" y1="0%" x2="100%" y2="100%">
      <stop offset="0%" style="stop-color:rgba(255,255,255,0.2);stop-opacity:1" />
      <stop offset="50%" style="stop-color:rgba(255,255,255,0.1);stop-opacity:1" />
      <stop offset="100%" style="stop-color:rgba(255,255,255,0.05);stop-opacity:1" />
    </linearGradient>
    
    <!-- Shadows -->
    <filter id="shadow" x="-50%" y="-50%" width="200%" height="200%">
      <feDropShadow dx="0" dy="4" stdDeviation="8" flood-color="#000000" flood-opacity="0.15"/>
    </filter>
  </defs>
  
  <!-- Background circle with glassmorphism -->
  <circle cx="100" cy="100" r="80" fill="url(#krakenGradient)" filter="url(#shadow)"/>
  
  <!-- Glass overlay -->
  <circle cx="100" cy="100" r="75" fill="url(#glassGradient)" filter="url(#glass)"/>
  
  <!-- Kraken logo representation -->
  <g transform="translate(100, 100)">
    <!-- Abstract tentacle-like connections -->
    <path d="M-30 -25 Q-20 -15 -10 -5 Q0 0 10 5 Q20 15 30 25" 
          stroke="#1E3A8A" stroke-width="4" fill="none" opacity="0.8"/>
    <path d="M-30 25 Q-20 15 -10 5 Q0 0 10 -5 Q20 -15 30 -25" 
          stroke="#1E3A8A" stroke-width="4" fill="none" opacity="0.8"/>
    
    <!-- Central octopus-like structure -->
    <circle cx="0" cy="0" r="12" fill="#1E3A8A" opacity="0.9"/>
    <circle cx="0" cy="0" r="6" fill="white" opacity="0.8"/>
    
    <!-- Additional tentacle elements -->
    <path d="M-20 -30 Q-10 -20 0 -10" stroke="#7C3AED" stroke-width="3" fill="none" opacity="0.6"/>
    <path d="M20 30 Q10 20 0 10" stroke="#7C3AED" stroke-width="3" fill="none" opacity="0.6"/>
    
    <!-- Floating connection points -->
    <circle cx="-35" cy="-35" r="4" fill="#1E3A8A" opacity="0.7"/>
    <circle cx="35" cy="35" r="4" fill="#1E3A8A" opacity="0.7"/>
    <circle cx="-35" cy="35" r="4" fill="#7C3AED" opacity="0.7"/>
    <circle cx="35" cy="-35" r="4" fill="#7C3AED" opacity="0.7"/>
  </g>
  
  <!-- Subtle glow effect -->
  <circle cx="100" cy="100" r="85" fill="none" stroke="#1E3A8A" stroke-width="1" opacity="0.3"/>
</svg>
