<?xml version="1.0" encoding="UTF-8"?>
<svg width="200" height="200" viewBox="0 0 200 200" xmlns="http://www.w3.org/2000/svg">
  <defs>
    <!-- Glassmorphism filters -->
    <filter id="glass" x="-50%" y="-50%" width="200%" height="200%">
      <feGaussianBlur in="SourceGraphic" stdDeviation="3"/>
      <feColorMatrix type="matrix" values="1 0 0 0 0 0 1 0 0 0 0 0 1 0 0 0 0 0 0.3 0"/>
    </filter>
    
    <!-- Gradients -->
    <linearGradient id="kucoinGradient" x1="0%" y1="0%" x2="100%" y2="100%">
      <stop offset="0%" style="stop-color:#23D160;stop-opacity:1" />
      <stop offset="100%" style="stop-color:#00B4DB;stop-opacity:1" />
    </linearGradient>
    
    <linearGradient id="glassGradient" x1="0%" y1="0%" x2="100%" y2="100%">
      <stop offset="0%" style="stop-color:rgba(255,255,255,0.2);stop-opacity:1" />
      <stop offset="50%" style="stop-color:rgba(255,255,255,0.1);stop-opacity:1" />
      <stop offset="100%" style="stop-color:rgba(255,255,255,0.05);stop-opacity:1" />
    </linearGradient>
    
    <!-- Shadows -->
    <filter id="shadow" x="-50%" y="-50%" width="200%" height="200%">
      <feDropShadow dx="0" dy="4" stdDeviation="8" flood-color="#000000" flood-opacity="0.15"/>
    </filter>
  </defs>
  
  <!-- Background circle with glassmorphism -->
  <circle cx="100" cy="100" r="80" fill="url(#kucoinGradient)" filter="url(#shadow)"/>
  
  <!-- Glass overlay -->
  <circle cx="100" cy="100" r="75" fill="url(#glassGradient)" filter="url(#glass)"/>
  
  <!-- KuCoin logo representation -->
  <g transform="translate(100, 100)">
    <!-- Abstract K shape -->
    <path d="M-25 -30 L-25 30 M-25 0 L0 -15 L0 15 M0 -15 L25 -30 M0 15 L25 30" 
          stroke="#23D160" stroke-width="4" fill="none" opacity="0.8" stroke-linecap="round"/>
    
    <!-- Central connection hub -->
    <circle cx="0" cy="0" r="10" fill="#23D160" opacity="0.8"/>
    <circle cx="0" cy="0" r="5" fill="white" opacity="0.9"/>
    
    <!-- Connection nodes -->
    <circle cx="-30" cy="-30" r="5" fill="#00B4DB" opacity="0.7"/>
    <circle cx="30" cy="30" r="5" fill="#00B4DB" opacity="0.7"/>
    <circle cx="-30" cy="30" r="5" fill="#23D160" opacity="0.7"/>
    <circle cx="30" cy="-30" r="5" fill="#23D160" opacity="0.7"/>
    
    <!-- Subtle connection lines -->
    <line x1="-25" y1="-25" x2="-30" y2="-30" stroke="#23D160" stroke-width="2" opacity="0.4"/>
    <line x1="25" y1="25" x2="30" y2="30" stroke="#00B4DB" stroke-width="2" opacity="0.4"/>
    
    <!-- Floating particles -->
    <circle cx="-15" cy="-20" r="2" fill="#23D160" opacity="0.5"/>
    <circle cx="15" cy="20" r="2" fill="#00B4DB" opacity="0.5"/>
  </g>
  
  <!-- Subtle glow effect -->
  <circle cx="100" cy="100" r="85" fill="none" stroke="#23D160" stroke-width="1" opacity="0.3"/>
</svg>
